<svg xmlns="http://www.w3.org/2000/svg" xmlns:xlink="http://www.w3.org/1999/xlink" preserveAspectRatio="xMidYMid" width="8" height="14" viewBox="0 0 8 14">
  <defs>
    <style>
      .cls-1 {
        fill: #fff;
        fill-rule: evenodd;
      }
    </style>
  </defs>
  <path d="M7.791,8.478 C7.379,8.923 6.883,9.245 6.332,9.469 C5.811,9.682 5.240,9.788 4.676,9.860 C4.761,9.957 4.801,10.005 4.854,10.061 C5.621,10.871 6.391,11.678 7.156,12.490 C7.416,12.767 7.470,13.110 7.327,13.432 C7.170,13.784 6.819,14.015 6.475,13.991 C6.257,13.975 6.087,13.861 5.936,13.701 C5.357,13.089 4.768,12.488 4.201,11.864 C4.036,11.683 3.956,11.717 3.811,11.875 C3.229,12.505 2.637,13.125 2.042,13.742 C1.774,14.019 1.456,14.069 1.146,13.910 C0.817,13.743 0.607,13.389 0.624,13.034 C0.635,12.793 0.747,12.610 0.904,12.445 C1.663,11.649 2.420,10.850 3.177,10.052 C3.227,9.999 3.274,9.943 3.347,9.861 C2.314,9.748 1.383,9.481 0.586,8.825 C0.488,8.744 0.385,8.665 0.295,8.574 C-0.054,8.222 -0.089,7.819 0.187,7.403 C0.423,7.047 0.820,6.952 1.232,7.156 C1.312,7.196 1.388,7.246 1.460,7.298 C2.946,8.371 4.986,8.401 6.477,7.347 C6.625,7.228 6.783,7.131 6.966,7.081 C7.322,6.985 7.653,7.122 7.844,7.449 C8.063,7.823 8.060,8.188 7.791,8.478 ZM3.976,7.086 C2.134,7.080 0.624,5.475 0.634,3.536 C0.645,1.575 2.156,-0.005 4.016,0.001 C5.880,0.006 7.376,1.609 7.367,3.589 C7.357,5.525 5.836,7.093 3.976,7.086 ZM4.003,1.810 C3.081,1.809 2.345,2.590 2.352,3.561 C2.359,4.520 3.095,5.281 4.011,5.278 C4.925,5.275 5.653,4.503 5.650,3.540 C5.647,2.578 4.917,1.811 4.003,1.810 Z" class="cls-1"/>
</svg>
