<svg xmlns="http://www.w3.org/2000/svg" xmlns:xlink="http://www.w3.org/1999/xlink" preserveAspectRatio="xMidYMid" width="18" height="18.031" viewBox="0 0 18 18.031">
  <defs>
    <style>
      .cls-1 {
        fill: #818181;
        fill-rule: evenodd;
      }
    </style>
  </defs>
  <path d="M16.501,18.031 L1.499,18.031 C0.673,18.031 -0.000,17.356 -0.000,16.526 L-0.000,5.436 C-0.000,4.658 0.592,4.019 1.347,3.941 L15.211,0.015 C15.363,-0.028 15.526,0.001 15.650,0.097 C15.774,0.192 15.849,0.342 15.849,0.498 L15.849,3.934 L16.504,3.934 C17.330,3.934 18.003,4.609 18.000,5.436 L18.000,9.092 L18.000,12.876 L18.000,16.529 C18.000,17.356 17.326,18.031 16.501,18.031 ZM14.849,1.162 L5.054,3.934 L14.849,3.934 L14.849,1.162 ZM17.000,5.436 C17.000,5.159 16.777,4.935 16.501,4.935 L1.499,4.935 C1.223,4.935 0.999,5.159 0.999,5.436 L0.999,9.536 L3.073,9.536 C3.349,9.536 3.572,9.760 3.572,10.036 C3.572,10.313 3.349,10.537 3.073,10.537 L0.999,10.537 L0.999,11.428 L1.892,11.428 C2.169,11.428 2.392,11.652 2.392,11.929 C2.392,12.205 2.169,12.429 1.892,12.429 L0.999,12.429 L0.999,16.529 C0.999,16.806 1.223,17.030 1.499,17.030 L16.504,17.030 C16.777,17.030 17.004,16.803 17.000,16.526 L17.000,13.373 L14.640,13.373 C13.322,13.373 12.251,12.301 12.251,10.981 C12.251,9.660 13.322,8.588 14.640,8.588 L17.000,8.588 L17.000,5.436 ZM17.004,9.593 L14.644,9.593 C13.878,9.593 13.254,10.217 13.254,10.984 C13.254,11.751 13.878,12.376 14.644,12.376 L17.004,12.376 L17.004,9.593 ZM14.445,11.481 C14.169,11.481 13.945,11.258 13.945,10.981 C13.945,10.704 14.169,10.480 14.445,10.480 L14.495,10.480 C14.771,10.480 14.994,10.704 14.994,10.981 C14.994,11.258 14.771,11.481 14.495,11.481 L14.445,11.481 Z" class="cls-1"/>
</svg>
