<svg xmlns="http://www.w3.org/2000/svg" xmlns:xlink="http://www.w3.org/1999/xlink" preserveAspectRatio="xMidYMid" width="10" height="14" viewBox="0 0 10 14">
  <defs>
    <style>
      .cls-1 {
        fill: #818181;
        fill-rule: evenodd;
      }
    </style>
  </defs>
  <path d="M8.877,14.000 C8.586,11.464 7.558,9.333 5.000,9.333 C2.441,9.333 1.413,11.464 1.122,14.000 L-0.004,14.000 C0.366,10.835 1.815,8.166 5.000,8.166 C8.184,8.166 9.633,10.835 10.003,14.000 L8.877,14.000 ZM5.000,7.000 C3.120,7.000 1.595,5.433 1.595,3.500 C1.595,1.567 3.120,-0.000 5.000,-0.000 C6.880,-0.000 8.404,1.567 8.404,3.500 C8.404,5.433 6.880,7.000 5.000,7.000 ZM5.000,1.166 C3.746,1.166 2.730,2.211 2.730,3.500 C2.730,4.788 3.746,5.833 5.000,5.833 C6.253,5.833 7.269,4.788 7.269,3.500 C7.269,2.211 6.253,1.166 5.000,1.166 Z" class="cls-1"/>
</svg>
