<svg xmlns="http://www.w3.org/2000/svg" xmlns:xlink="http://www.w3.org/1999/xlink" preserveAspectRatio="xMidYMid" width="46" height="66" viewBox="0 0 46 66">
  <defs>
    <style>
      .cls-1 {
        fill: #c1c1c1;
        fill-rule: evenodd;
      }
    </style>
  </defs>
  <path d="M43.494,66.000 L2.506,66.000 C1.122,66.000 -0.000,64.883 -0.000,63.505 L-0.000,55.594 C-0.000,42.971 10.318,32.703 23.000,32.703 C35.682,32.703 46.000,42.971 46.000,55.594 L46.000,63.505 C46.000,64.883 44.878,66.000 43.494,66.000 ZM23.000,30.735 C14.486,30.735 7.559,23.841 7.559,15.367 C7.559,6.894 14.486,-0.000 23.000,-0.000 C31.514,-0.000 38.440,6.894 38.440,15.367 C38.440,23.841 31.514,30.735 23.000,30.735 Z" class="cls-1"/>
</svg>
