<svg xmlns="http://www.w3.org/2000/svg" xmlns:xlink="http://www.w3.org/1999/xlink" preserveAspectRatio="xMidYMid" width="20" height="14.03" viewBox="0 0 20 14.03">
  <defs>
    <style>
      .cls-1 {
        fill: #818181;
        fill-rule: evenodd;
      }
    </style>
  </defs>
  <path d="M19.727,6.339 L13.776,0.268 C13.413,-0.103 12.824,-0.103 12.461,0.268 C12.097,0.638 12.097,1.239 12.461,1.609 L16.825,6.061 L0.930,6.061 C0.416,6.061 -0.000,6.486 -0.000,7.010 C-0.000,7.534 0.416,7.958 0.930,7.958 L16.825,7.958 L12.461,12.410 C12.098,12.781 12.098,13.382 12.461,13.752 C12.642,13.937 12.880,14.030 13.118,14.030 C13.356,14.030 13.594,13.937 13.776,13.752 L19.727,7.681 C20.091,7.310 20.091,6.710 19.727,6.339 Z" class="cls-1"/>
</svg>
