<svg xmlns="http://www.w3.org/2000/svg" xmlns:xlink="http://www.w3.org/1999/xlink" preserveAspectRatio="xMidYMid" width="18" height="16" viewBox="0 0 18 16">
  <defs>
    <style>
      .cls-1 {
        fill: #818181;
        fill-rule: evenodd;
      }
    </style>
  </defs>
  <path d="M17.500,5.121 L16.000,5.121 L16.000,15.231 C16.000,15.276 16.006,15.544 15.978,15.638 C15.912,15.858 15.714,16.000 15.500,16.000 C15.451,16.000 15.402,15.992 15.353,15.977 L13.875,15.511 L12.398,15.977 C12.302,16.007 12.199,16.007 12.103,15.977 L10.626,15.511 L9.148,15.977 C9.052,16.007 8.949,16.007 8.853,15.977 L7.375,15.511 L5.897,15.977 C5.802,16.007 5.699,16.007 5.603,15.977 L4.125,15.511 L2.647,15.977 C2.383,16.060 2.103,15.908 2.022,15.638 C1.994,15.544 2.000,15.044 2.000,15.000 L2.000,5.121 L0.500,5.121 C0.224,5.121 -0.000,4.892 -0.000,4.609 L-0.000,0.512 C-0.000,0.229 0.224,-0.000 0.500,-0.000 L17.500,-0.000 C17.776,-0.000 18.000,0.229 18.000,0.512 L18.000,4.609 C18.000,4.892 17.776,5.121 17.500,5.121 ZM3.000,14.794 L3.978,14.486 C4.074,14.455 4.176,14.455 4.272,14.486 L5.750,14.952 L7.228,14.486 C7.324,14.455 7.426,14.455 7.522,14.486 L9.000,14.952 L10.478,14.486 C10.574,14.455 10.677,14.455 10.772,14.486 L12.250,14.952 L13.728,14.486 C13.824,14.455 13.926,14.455 14.022,14.486 L15.000,14.794 L15.000,3.098 L3.000,3.098 L3.000,14.794 ZM17.000,1.024 L1.000,1.024 L1.000,4.097 L2.000,4.097 L2.000,2.586 C2.000,2.303 2.224,2.074 2.500,2.074 L15.500,2.074 C15.776,2.074 16.000,2.303 16.000,2.586 L16.000,4.097 L17.000,4.097 L17.000,1.024 ZM12.875,10.036 L5.125,10.036 C4.849,10.036 4.625,9.806 4.625,9.523 C4.625,9.241 4.849,9.011 5.125,9.011 L12.875,9.011 C13.151,9.011 13.375,9.241 13.375,9.523 C13.375,9.806 13.151,10.036 12.875,10.036 ZM12.875,7.938 L5.125,7.938 C4.849,7.938 4.625,7.709 4.625,7.426 C4.625,7.143 4.849,6.914 5.125,6.914 L12.875,6.914 C13.151,6.914 13.375,7.143 13.375,7.426 C13.375,7.709 13.151,7.938 12.875,7.938 ZM11.700,5.890 L6.300,5.890 C6.024,5.890 5.800,5.660 5.800,5.378 C5.800,5.095 6.024,4.865 6.300,4.865 L11.700,4.865 C11.976,4.865 12.200,5.095 12.200,5.378 C12.200,5.660 11.976,5.890 11.700,5.890 ZM5.125,11.108 L9.475,11.108 C9.751,11.108 9.975,11.338 9.975,11.621 C9.975,11.904 9.751,12.133 9.475,12.133 L5.125,12.133 C4.849,12.133 4.625,11.904 4.625,11.621 C4.625,11.338 4.849,11.108 5.125,11.108 Z" class="cls-1"/>
</svg>
