<svg xmlns="http://www.w3.org/2000/svg" preserveAspectRatio="xMidYMid" width="16" height="17" viewBox="0 0 16 17"><defs><style>.cls-1{fill:#818181;fill-rule:evenodd}</style></defs><path d="M14.1 16.995H1.903a1.909 1.909 0 0 1-1.904-1.903V4.049c0-1.047.857-1.903 1.904-1.903h.751v1.142h-.751a.772.772 0 0 0-.762.761V6.35h13.72V4.049a.772.772 0 0 0-.761-.761h-.395V2.146h.395c1.047 0 1.904.856 1.904 1.903v11.043a1.909 1.909 0 0 1-1.904 1.903zm.761-9.527H1.141v7.624c0 .412.349.761.762.761H14.1a.772.772 0 0 0 .761-.761V7.468zm-3.052 3.205a.952.952 0 1 1 0-1.905.952.952 0 0 1 0 1.905zM8.001 14.48a.952.952 0 1 1 0-1.903.952.952 0 0 1 0 1.903zm0-3.807a.952.952 0 1 1 0-1.905.952.952 0 0 1 0 1.905zM4.193 14.48a.952.952 0 1 1 0-1.903.952.952 0 0 1 0 1.903zm0-3.807a.952.952 0 1 1 0-1.905.952.952 0 0 1 0 1.905zm7.426-5.442a.951.951 0 0 1-.952-.951V.948a.952.952 0 1 1 1.904 0V4.28a.952.952 0 0 1-.952.951zm-5.53-3.085h3.824v1.142H6.089V2.146zM4.384 5.231a.951.951 0 0 1-.952-.951V.948a.952.952 0 1 1 1.904 0V4.28a.952.952 0 0 1-.952.951z" class="cls-1"/></svg>