<svg xmlns="http://www.w3.org/2000/svg" preserveAspectRatio="xMidYMid" width="17" height="17" viewBox="0 0 17 17"><defs><style>.cls-1{fill:#7ebc3c;fill-rule:evenodd}</style></defs><path d="M15.86 4.25l-1.972-1.139-1.139-1.972h-2.277L8.5.001 6.527 1.139H4.25L3.111 3.112 1.139 4.25v2.277L.001 8.5l1.138 1.972v2.277l1.973 1.139L4.25 15.86h2.278L8.5 16.999l1.972-1.139h2.277l1.139-1.973 1.972-1.138v-2.277l1.139-1.973-1.139-1.972V4.25zm-8.127 7.728a.799.799 0 0 1-.576.233.798.798 0 0 1-.575-.233L4.097 9.493a.797.797 0 0 1 0-1.128l.658-.658a.797.797 0 0 1 1.128 0l1.274 1.274 3.96-3.959a.797.797 0 0 1 1.127 0l.658.658a.797.797 0 0 1 0 1.128l-5.169 5.17z" class="cls-1"/></svg>