<svg xmlns="http://www.w3.org/2000/svg" xmlns:xlink="http://www.w3.org/1999/xlink" preserveAspectRatio="xMidYMid" width="22" height="22" viewBox="0 0 22 22">
  <defs>
    <style>
      .cls-1 {
        fill: #303030;
        fill-rule: evenodd;
      }
    </style>
  </defs>
  <path d="M16.000,22.000 L16.000,20.000 L20.000,20.000 L20.000,16.000 L22.000,16.000 L22.000,22.000 L16.000,22.000 ZM20.000,2.000 L16.000,2.000 L16.000,-0.000 L22.000,-0.000 L22.000,6.000 L20.000,6.000 L20.000,2.000 ZM2.000,6.000 L-0.000,6.000 L-0.000,-0.000 L6.000,-0.000 L6.000,2.000 L2.000,2.000 L2.000,6.000 ZM4.000,4.000 L18.000,4.000 L18.000,18.000 L4.000,18.000 L4.000,4.000 ZM6.000,16.000 L16.000,16.000 L16.000,6.000 L6.000,6.000 L6.000,16.000 ZM2.000,20.000 L6.000,20.000 L6.000,22.000 L-0.000,22.000 L-0.000,16.000 L2.000,16.000 L2.000,20.000 Z" class="cls-1"/>
</svg>
