<svg xmlns="http://www.w3.org/2000/svg" preserveAspectRatio="xMidYMid" width="12" height="17" viewBox="0 0 12 17"><defs><style>.cls-1{fill:#818181;fill-rule:evenodd}</style></defs><path d="M6.736 16.61a.906.906 0 0 1-.736.385.908.908 0 0 1-.736-.385C3.662 14.372.001 8.961.001 6.26.001 2.802 2.687-.001 6-.001c3.313 0 5.999 2.803 5.999 6.261 0 2.701-3.661 8.111-5.263 10.35zM6 1.141c-2.705 0-4.905 2.296-4.905 5.119 0 1.517 1.706 4.878 4.493 8.884a.502.502 0 0 0 .412.219.504.504 0 0 0 .413-.219c2.786-4.006 4.493-7.367 4.493-8.884 0-2.823-2.201-5.119-4.906-5.119zM3.448 5.865c0-1.471 1.143-2.664 2.552-2.664 1.41 0 2.552 1.193 2.552 2.664S7.41 8.528 6 8.528c-1.409 0-2.552-1.192-2.552-2.663zm4.01 0c0-.84-.654-1.522-1.458-1.522-.804 0-1.458.682-1.458 1.522 0 .839.654 1.522 1.458 1.522.804 0 1.458-.683 1.458-1.522z" class="cls-1"/></svg>