<svg xmlns="http://www.w3.org/2000/svg" preserveAspectRatio="xMidYMid" width="16" height="16" viewBox="0 0 16 16"><defs><style>.cls-1{fill:#888;fill-rule:evenodd}</style></defs><path d="M15.899 10.113c-.053.153-.13.301-.229.441-.368.524-.887.876-1.517.876H7.799c-.242.399-.858 1.323-2.514 3.926a1.383 1.383 0 0 1-1.561.589c-.589-.174-1.125-.728-1.125-1.347l-.004-3.203c-.142 0-.142-.001-.194-.002h-.205c-.354 0-.491-.005-.608-.024C.832 11.252.214 10.631.05 9.871c-.025-.117-.026-.142-.035-.553l-.006-.291-.008-.024V1.575l.066-.185.007-.019C.261.704.745.249 1.409.063L1.454.05l.027-.008.151-.043h12.774l.147.041.024.006c.637.155 1.084.547 1.316 1.166.037.097.056.18.069.234l.037.143v8.382l-.1.142zm-.991-8.377c-.011-.041-.018-.083-.033-.122a.757.757 0 0 0-.57-.499l-.051-.015H1.789a2.35 2.35 0 0 1-.079.023.758.758 0 0 0-.563.582c-.006.023-.016.045-.024.068V8.87c.008.022.019.8.024.824.065.3.31.54.611.587.06.009.268.01.438.01h.226c.134.003.626.003.759.006a.56.56 0 0 1 .533.428c.004.015.006 2.468.008 3.872 0 .12.079.226.193.26.025.007.174.011.199.011.09 0 .176-.046.226-.125.854-1.342 2.524-3.909 2.618-4.104a.558.558 0 0 1 .54-.342h3.361l3.294-.001a.74.74 0 0 0 .633-.334.603.603 0 0 0 .112-.274c.001-.005.006-.009.01-.014V1.736zm-3.117 4.81c-.62 0-1.123-.508-1.123-1.134 0-.626.503-1.133 1.123-1.133s1.123.507 1.123 1.133-.503 1.134-1.123 1.134zm-3.742 0c-.62 0-1.123-.508-1.123-1.134 0-.626.503-1.133 1.123-1.133s1.122.507 1.122 1.133-.502 1.134-1.122 1.134zm-3.742 0c-.62 0-1.123-.508-1.123-1.134 0-.626.503-1.133 1.123-1.133s1.122.507 1.122 1.133-.502 1.134-1.122 1.134z" class="cls-1"/></svg>