<svg xmlns="http://www.w3.org/2000/svg" preserveAspectRatio="xMidYMid" width="8" height="14" viewBox="0 0 8 14"><defs><style>.cls-1{fill:#fff;fill-rule:evenodd}</style></defs><path d="M7.791 8.478a4.023 4.023 0 0 1-1.459.991c-.521.213-1.092.319-1.656.391.085.097.125.145.178.201.767.81 1.537 1.617 2.302 2.429.26.277.314.62.171.942-.157.352-.508.583-.852.559-.218-.016-.388-.13-.539-.29-.579-.612-1.168-1.213-1.735-1.837-.165-.181-.245-.147-.39.011-.582.63-1.174 1.25-1.769 1.867-.268.277-.586.327-.896.168a.955.955 0 0 1-.522-.876c.011-.241.123-.424.28-.589.759-.796 1.516-1.595 2.273-2.393.05-.053.097-.109.17-.191-1.033-.113-1.964-.38-2.761-1.036-.098-.081-.201-.16-.291-.251-.349-.352-.384-.755-.108-1.171.236-.356.633-.451 1.045-.247.08.04.156.09.228.142 1.486 1.073 3.526 1.103 5.017.049a1.35 1.35 0 0 1 .489-.266c.356-.096.687.041.878.368.219.374.216.739-.053 1.029zM3.976 7.086C2.134 7.08.624 5.475.634 3.536.645 1.575 2.156-.005 4.016.001c1.864.005 3.36 1.608 3.351 3.588-.01 1.936-1.531 3.504-3.391 3.497zm.027-5.276c-.922-.001-1.658.78-1.651 1.751.007.959.743 1.72 1.659 1.717.914-.003 1.642-.775 1.639-1.738-.003-.962-.733-1.729-1.647-1.73z" class="cls-1"/></svg>