<svg xmlns="http://www.w3.org/2000/svg" preserveAspectRatio="xMidYMid" width="45" height="38" viewBox="0 0 45 38"><defs><style>.cls-1{fill:#c1c1c1;fill-rule:evenodd}</style></defs><path d="M39.508 38H5.492C2.462 38 0 35.505 0 32.437V13.163C0 10.095 2.462 7.6 5.492 7.6h2.029c.23 0 .429-.158.487-.386l.971-3.952C9.458 1.341 11.152 0 13.104 0h18.791c1.952 0 3.647 1.341 4.124 3.26l.973 3.956a.505.505 0 0 0 .487.384h2.029c3.03 0 5.492 2.495 5.492 5.563v19.274C45 35.505 42.538 38 39.508 38zM22.5 9.5c-6.204 0-11.25 5.113-11.25 11.4s5.046 11.4 11.25 11.4 11.25-5.113 11.25-11.4S28.704 9.5 22.5 9.5zm15 3.8c-1.035 0-1.875.851-1.875 1.9s.84 1.9 1.875 1.9c1.035 0 1.875-.851 1.875-1.9s-.84-1.9-1.875-1.9zm-15 15.2c-4.136 0-7.5-3.409-7.5-7.6s3.364-7.6 7.5-7.6 7.5 3.409 7.5 7.6-3.364 7.6-7.5 7.6z" class="cls-1"/></svg>