<svg xmlns="http://www.w3.org/2000/svg" preserveAspectRatio="xMidYMid" width="21" height="21" viewBox="0 0 21 21"><defs><style>.cls-1{fill:#fff;fill-rule:evenodd}</style></defs><path d="M10.5.002C4.701.002.002 4.701.002 10.5c0 5.798 4.699 10.498 10.498 10.498 5.798 0 10.498-4.701 10.498-10.498 0-5.798-4.7-10.498-10.498-10.498zm0 19.683a9.186 9.186 0 0 1 0-18.371 9.186 9.186 0 0 1 0 18.371zm3.936-9.842h-3.28v-3.28a.656.656 0 0 0-1.312 0v3.28H6.563a.657.657 0 0 0 0 1.313h3.281v3.28a.656.656 0 1 0 1.312 0v-3.28h3.28a.656.656 0 1 0 0-1.313z" class="cls-1"/></svg>