<svg xmlns="http://www.w3.org/2000/svg" xmlns:xlink="http://www.w3.org/1999/xlink" preserveAspectRatio="xMidYMid" width="17.031" height="11" viewBox="0 0 17.031 11">
  <defs>
    <style>
      .cls-1 {
        fill: #000;
        fill-rule: evenodd;
      }
    </style>
  </defs>
  <path d="M0.202,5.301 L4.131,9.428 C4.386,9.697 4.802,9.697 5.057,9.428 C5.312,9.161 5.312,8.724 5.057,8.456 L2.246,5.502 L11.798,5.502 C14.417,5.502 15.727,8.042 15.727,10.318 C15.727,10.697 16.021,11.006 16.382,11.006 C16.743,11.006 17.037,10.697 17.037,10.318 C17.037,7.282 15.727,4.125 11.798,4.125 L2.246,4.125 L5.057,1.172 C5.312,0.904 5.312,0.467 5.057,0.199 C4.802,-0.069 4.386,-0.069 4.131,0.199 L0.202,4.328 C-0.054,4.596 -0.054,5.031 0.202,5.301 Z" class="cls-1"/>
</svg>
