<svg xmlns="http://www.w3.org/2000/svg" preserveAspectRatio="xMidYMid" width="28" height="22" viewBox="0 0 28 22"><defs><style>.cls-1{fill:#fff;fill-rule:evenodd}</style></defs><path d="M27.35.403a1.73 1.73 0 0 0-1.848-.237L.896 11.654a1.547 1.547 0 0 0-.889 1.564 1.537 1.537 0 0 0 1.158 1.37l4.903 1.245 2.887 5.354a1.528 1.528 0 0 0 2.387.404l2.8-2.593.05-.05 7.687 2.459c.408.131.855.082 1.226-.133.372-.216.64-.582.736-1.005l4.113-18.078A1.793 1.793 0 0 0 27.35.403zM6.88 14.172l-4.603-1.169 16.7-7.797-11.838 9.079a.88.88 0 0 0-.259-.113zm3.49 5.867l-2.276-4.221a.923.923 0 0 0 .064-.045L21.383 5.632 11.159 16.614a.914.914 0 0 0-.215.85.9.9 0 0 0 .595.636l.687.22-1.856 1.719zm11.792-.441l-8.727-2.791L25.824 3.498l-3.662 16.1z" class="cls-1"/></svg>