<svg xmlns="http://www.w3.org/2000/svg" preserveAspectRatio="xMidYMid" width="23" height="23" viewBox="0 0 23 23"><defs><style>.cls-1{fill:#818181;fill-rule:evenodd}</style></defs><path d="M20.289 12.221v10.133a.653.653 0 0 1-.666.646.653.653 0 0 1-.665-.646V12.225c-1.543-.301-2.711-1.628-2.711-3.218 0-1.589 1.168-2.916 2.711-3.218V.646c0-.359.296-.646.665-.646.37 0 .666.287.666.646v5.143C21.837 6.091 23 7.413 23 9.003c0 1.589-1.168 2.916-2.711 3.218zm-.666-5.201c-1.128 0-2.045.891-2.045 1.987 0 1.097.917 1.988 2.045 1.988 1.129 0 2.046-.891 2.046-1.988 0-1.096-.917-1.987-2.046-1.987zM12.19 17.646v4.703a.653.653 0 0 1-.665.646.653.653 0 0 1-.666-.646v-4.703c-1.543-.302-2.711-1.628-2.711-3.218s1.168-2.916 2.711-3.218V.646c0-.359.296-.646.666-.646.369 0 .665.287.665.646V11.21c1.548.302 2.711 1.633 2.711 3.218 0 1.59-1.168 2.916-2.711 3.218zm-.665-5.205c-1.129 0-2.046.891-2.046 1.987 0 1.097.917 1.988 2.046 1.988 1.128 0 2.045-.891 2.045-1.988 0-1.096-.917-1.987-2.045-1.987zm-7.483-.22v10.128a.653.653 0 0 1-.665.646.653.653 0 0 1-.666-.646V12.225C1.168 11.924 0 10.597 0 9.007c0-1.589 1.168-2.916 2.711-3.218V.646c0-.359.296-.646.666-.646.369 0 .665.287.665.646v5.143c1.543.302 2.711 1.624 2.711 3.214 0 1.589-1.168 2.916-2.711 3.218zM3.377 7.02c-1.129 0-2.046.891-2.046 1.987 0 1.097.917 1.988 2.046 1.988 1.123 0 2.045-.891 2.045-1.988 0-1.096-.917-1.987-2.045-1.987z" class="cls-1"/></svg>