<svg xmlns="http://www.w3.org/2000/svg" preserveAspectRatio="xMidYMid" width="17" height="17" viewBox="0 0 17 17"><defs><style>.cls-1{fill:#818181;fill-rule:evenodd}</style></defs><path d="M8.5 17a8.5 8.5 0 1 1 0-17 8.5 8.5 0 0 1 0 17zm0-15.938a7.438 7.438 0 1 0 0 14.876 7.438 7.438 0 0 0 0-14.876zm3.339 6.698L9.037 4.997v8.284c0 .293-.24.531-.537.531a.534.534 0 0 1-.536-.531V4.997L5.161 7.759a.54.54 0 0 1-.759 0 .527.527 0 0 1 0-.751l3.719-3.665a.547.547 0 0 1 .379-.156c.14 0 .28.057.38.156l3.718 3.666a.528.528 0 0 1 0 .751.541.541 0 0 1-.759 0z" class="cls-1"/></svg>