<svg xmlns="http://www.w3.org/2000/svg" preserveAspectRatio="xMidYMid" width="18" height="16" viewBox="0 0 18 16"><defs><style>.cls-1{fill:#818181;fill-rule:evenodd}</style></defs><path d="M17.5 5.121H16v10.11c0 .045.006.313-.022.407a.502.502 0 0 1-.625.339l-1.478-.466-1.477.466a.495.495 0 0 1-.295 0l-1.477-.466-1.478.466a.495.495 0 0 1-.295 0l-1.478-.466-1.478.466a.491.491 0 0 1-.294 0l-1.478-.466-1.478.466a.498.498 0 0 1-.625-.339C1.994 15.544 2 15.044 2 15V5.121H.5a.506.506 0 0 1-.5-.512V.512C0 .229.224 0 .5 0h17c.276 0 .5.229.5.512v4.097a.506.506 0 0 1-.5.512zM3 14.794l.978-.308a.476.476 0 0 1 .294 0l1.478.466 1.478-.466a.476.476 0 0 1 .294 0L9 14.952l1.478-.466a.476.476 0 0 1 .294 0l1.478.466 1.478-.466a.476.476 0 0 1 .294 0l.978.308V3.098H3v11.696zm14-13.77H1v3.073h1V2.586c0-.283.224-.512.5-.512h13c.276 0 .5.229.5.512v1.511h1V1.024zm-4.125 9.012h-7.75c-.276 0-.5-.23-.5-.513 0-.282.224-.512.5-.512h7.75c.276 0 .5.23.5.512a.507.507 0 0 1-.5.513zm0-2.098h-7.75a.506.506 0 0 1-.5-.512c0-.283.224-.512.5-.512h7.75c.276 0 .5.229.5.512a.506.506 0 0 1-.5.512zM11.7 5.89H6.3c-.276 0-.5-.23-.5-.512 0-.283.224-.513.5-.513h5.4c.276 0 .5.23.5.513a.507.507 0 0 1-.5.512zm-6.575 5.218h4.35c.276 0 .5.23.5.513a.506.506 0 0 1-.5.512h-4.35a.506.506 0 0 1-.5-.512c0-.283.224-.513.5-.513z" class="cls-1"/></svg>