<svg xmlns="http://www.w3.org/2000/svg" preserveAspectRatio="xMidYMid" width="21" height="21" viewBox="0 0 21 21"><defs><style>.cls-1{fill:#818181;fill-rule:evenodd}</style></defs><path d="M17.041 5.287C16.411 2.236 13.693 0 10.5 0 7.307 0 4.588 2.236 3.959 5.287 1.729 5.571 0 7.467 0 9.756c0 2.484 2.036 4.506 4.539 4.506h5.285v4.17l-1.549-1.538-.956.949L10.5 21l3.181-3.157-.956-.949-1.549 1.538v-4.17h5.284c2.503 0 4.54-2.022 4.54-4.506 0-2.289-1.729-4.185-3.959-4.469zm-.581 7.633h-5.284V7.131H9.824v5.789H4.539c-1.758 0-3.188-1.419-3.188-3.164S2.782 6.592 4.54 6.592h.6L5.211 6c.316-2.656 2.59-4.659 5.289-4.659S15.473 3.344 15.789 6l.07.592h.601c1.758 0 3.188 1.419 3.188 3.164s-1.43 3.164-3.188 3.164z" class="cls-1"/></svg>