<svg xmlns="http://www.w3.org/2000/svg" preserveAspectRatio="xMidYMid" width="14.031" height="14" viewBox="0 0 14.031 14"><defs><style>.cls-1{fill:#818181;fill-rule:evenodd}</style></defs><path d="M8.423 2.934a.942.942 0 0 0-1.331 0l-.333.333-4.658 4.654.001.001-.147.147S1.487 8.54.43 11.945l-.022.072-.057.186-.052.169-.044.145-.102.342c-.076.257-.261.837-.051 1.047.202.202.789.024 1.046-.052l.34-.101.151-.046.16-.049.196-.06.057-.018c3.246-1.009 3.829-1.482 3.877-1.525l.001-.001.003-.003.151-.15.01.01 4.658-4.655.333-.332a.94.94 0 0 0 0-1.33l-2.662-2.66zM5.398 11.45l-.016.01-.011.007-.013.008-.012.007c-.155.093-.61.332-1.714.73-.129.047-.269.097-.417.147l-1.569-1.567c.051-.148.101-.289.148-.419.399-1.107.638-1.562.73-1.717l.006-.01.009-.015.007-.01.01-.016.115-.114 2.844 2.841-.117.118zm8.349-8.516L11.085.275a.942.942 0 0 0-1.331 0L9.088.94a.94.94 0 0 0 0 1.329l2.663 2.66a.942.942 0 0 0 1.331 0l.665-.665a.94.94 0 0 0 0-1.33z" class="cls-1"/></svg>