<svg xmlns="http://www.w3.org/2000/svg" preserveAspectRatio="xMidYMid" width="18" height="18.031" viewBox="0 0 18 18.031"><defs><style>.cls-1{fill:#818181;fill-rule:evenodd}</style></defs><path d="M16.501 18.031H1.499A1.504 1.504 0 0 1 0 16.526V5.436c0-.778.592-1.417 1.347-1.495L15.211.015a.495.495 0 0 1 .439.082.51.51 0 0 1 .199.401v3.436h.655c.826 0 1.499.675 1.496 1.502v11.093c0 .827-.674 1.502-1.499 1.502zM14.849 1.162L5.054 3.934h9.795V1.162zM17 5.436a.5.5 0 0 0-.499-.501H1.499a.5.5 0 0 0-.5.501v4.1h2.074a.5.5 0 0 1 0 1.001H.999v.891h.893a.5.5 0 1 1 0 1.001H.999v4.1a.5.5 0 0 0 .5.501h15.005c.273 0 .5-.227.496-.504v-3.153h-2.36a2.392 2.392 0 0 1 0-4.785H17V5.436zm.004 4.157h-2.36a1.392 1.392 0 0 0 0 2.783h2.36V9.593zm-2.559 1.888a.5.5 0 1 1 0-1.001h.05a.5.5 0 0 1 0 1.001h-.05z" class="cls-1"/></svg>