<svg xmlns="http://www.w3.org/2000/svg" preserveAspectRatio="xMidYMid" width="17" height="17" viewBox="0 0 17 17"><defs><style>.cls-1{fill:#818181;fill-rule:evenodd}</style></defs><path d="M16.4 14.425h-3.35V16.4c0 .337-.264.6-.6.6h-7.9a.593.593 0 0 1-.6-.6v-1.975H.6a.612.612 0 0 1-.6-.6V3.175c0-.337.263-.6.6-.6h3.35V.6c0-.337.263-.6.6-.6h7.9c.336 0 .6.263.6.6v1.975h3.35c.337 0 .6.263.6.6v10.65c0 .337-.263.6-.6.6zM5.15 15.8h6.7v-4.945h-6.7V15.8zm6.7-14.6h-6.7v1.375h6.7V1.2zm3.95 2.574H1.2v9.451h2.765v-2.37H2.897a.593.593 0 0 1-.6-.6c0-.336.263-.599.6-.599h11.221c.336 0 .6.263.6.599 0 .337-.264.6-.6.6H13.05v2.37h2.75V3.774zm-2.575 3.087h-1.55a.593.593 0 0 1-.6-.6c0-.336.263-.599.6-.599h1.55c.337 0 .6.263.6.599 0 .337-.263.6-.6.6z" class="cls-1"/></svg>