<svg xmlns="http://www.w3.org/2000/svg" preserveAspectRatio="xMidYMid" width="17.031" height="11" viewBox="0 0 17.031 11"><defs><style>.cls-1{fill:#000;fill-rule:evenodd}</style></defs><path d="M.202 5.301l3.929 4.127a.632.632 0 0 0 .926 0 .713.713 0 0 0 0-.972L2.246 5.502h9.552c2.619 0 3.929 2.54 3.929 4.816 0 .379.294.688.655.688.361 0 .655-.309.655-.688 0-3.036-1.31-6.193-5.239-6.193H2.246l2.811-2.953a.714.714 0 0 0 0-.973.634.634 0 0 0-.926 0L.202 4.328a.712.712 0 0 0 0 .973z" class="cls-1"/></svg>