<svg xmlns="http://www.w3.org/2000/svg" preserveAspectRatio="xMidYMid" width="17" height="17" viewBox="0 0 17 17"><defs><style>.cls-1{fill:#818181;fill-rule:evenodd}</style></defs><path d="M16.418 7.753h-1.466v7.48c0 .978-.803 1.771-1.794 1.771H3.845c-.99 0-1.794-.793-1.794-1.771v-7.48H.585a.583.583 0 0 1-.586-.579c0-.319.263-.579.586-.579h1.466V4.277h12.901v2.318h1.466c.324 0 .586.26.586.579 0 .32-.262.579-.586.579zm-2.639-2.318H3.224v9.798c0 .338.279.613.621.613h9.313a.617.617 0 0 0 .621-.613V5.435zm-2.15 9.346a.582.582 0 0 1-.586-.579V7.078c0-.32.262-.579.586-.579.324 0 .586.259.586.579v7.124c0 .32-.262.579-.586.579zm-3.127 0a.583.583 0 0 1-.587-.579V7.078c0-.32.263-.579.587-.579.324 0 .586.259.586.579v7.124c0 .32-.262.579-.586.579zm-3.128 0a.582.582 0 0 1-.586-.579V7.078c0-.32.262-.579.586-.579.324 0 .587.259.587.579v7.124c0 .32-.263.579-.587.579zM14.952 3.5H2.149a.582.582 0 0 1-.586-.579c0-.32.262-.579.586-.579h4.594V.895c0-.532.389-.893.928-.893h2.052c.539 0 .929.361.929.893v1.447h4.3c.324 0 .586.259.586.579 0 .32-.262.579-.586.579zM9.479 1.136H7.891v1.206h1.588V1.136z" class="cls-1"/></svg>