<svg xmlns="http://www.w3.org/2000/svg" preserveAspectRatio="xMidYMid" width="13" height="10" viewBox="0 0 13 10"><defs><style>.cls-1{fill:#fff;fill-rule:evenodd}</style></defs><path d="M12.646.184a5.565 5.565 0 0 1-1.695.613 2.73 2.73 0 0 0-1.947-.798c-1.473 0-2.668 1.131-2.668 2.524 0 .198.024.39.07.575C4.189 2.993 2.223 1.988.908.46c-.23.373-.361.806-.361 1.269 0 .876.471 1.649 1.186 2.101a2.774 2.774 0 0 1-1.208-.317v.032c0 1.223.92 2.243 2.14 2.476a2.844 2.844 0 0 1-1.205.042c.339 1.003 1.324 1.733 2.491 1.754a5.547 5.547 0 0 1-3.312 1.08c-.216 0-.428-.012-.637-.035a7.866 7.866 0 0 0 4.089 1.134c4.906 0 7.589-3.846 7.589-7.182l-.009-.327a5.22 5.22 0 0 0 1.333-1.305c-.478.2-.992.337-1.531.397A2.565 2.565 0 0 0 12.646.184z" class="cls-1"/></svg>