<svg xmlns="http://www.w3.org/2000/svg" preserveAspectRatio="xMidYMid" width="10" height="14" viewBox="0 0 10 14"><defs><style>.cls-1{fill:#818181;fill-rule:evenodd}</style></defs><path d="M8.877 14C8.586 11.464 7.558 9.333 5 9.333c-2.559 0-3.587 2.131-3.878 4.667H-.004C.366 10.835 1.815 8.166 5 8.166c3.184 0 4.633 2.669 5.003 5.834H8.877zM5 7C3.12 7 1.595 5.433 1.595 3.5S3.12 0 5 0s3.404 1.567 3.404 3.5S6.88 7 5 7zm0-5.834c-1.254 0-2.27 1.045-2.27 2.334 0 1.288 1.016 2.333 2.27 2.333 1.253 0 2.269-1.045 2.269-2.333 0-1.289-1.016-2.334-2.269-2.334z" class="cls-1"/></svg>