<svg xmlns="http://www.w3.org/2000/svg" preserveAspectRatio="xMidYMid" width="15" height="9" viewBox="0 0 15 9"><defs><style>.cls-1{fill:#fff;fill-rule:evenodd}</style></defs><path d="M14.378 7.29c-.446-.568-.972-1.052-1.469-1.567-.449-.464-.477-.733-.117-1.268.394-.585.817-1.147 1.214-1.729.371-.544.75-1.086.945-1.737.124-.414.015-.597-.386-.669a1.14 1.14 0 0 0-.211-.014L11.977.303c-.292-.004-.454.131-.558.406a16.3 16.3 0 0 1-.45 1.102c-.378.814-.8 1.6-1.392 2.266-.13.147-.274.332-.492.256-.273-.106-.353-.582-.349-.743L8.734.682C8.681.266 8.594.081 8.205 0L5.736.001c-.33 0-.495.135-.671.353-.102.126-.132.208.076.25.41.083.641.364.702.799.099.696.092 1.395.035 2.094a2.04 2.04 0 0 1-.126.598c-.119.3-.312.36-.565.176-.23-.167-.391-.402-.548-.638A14.304 14.304 0 0 1 3.189.784c-.112-.29-.304-.466-.594-.471a58.718 58.718 0 0 0-2.14 0C.026.322-.102.543.073.955.85 2.787 1.715 4.568 2.843 6.19c.579.832 1.245 1.567 2.104 2.088.974.59 2.023.768 3.127.713.517-.026.673-.168.696-.715.017-.373.057-.745.23-1.081.171-.33.43-.392.728-.187.149.103.274.233.393.371.291.337.572.685.874 1.011.379.409.828.651 1.392.601h2.185c.352-.024.534-.481.332-.898a4.516 4.516 0 0 0-.526-.803z" class="cls-1"/></svg>