<svg xmlns="http://www.w3.org/2000/svg" preserveAspectRatio="xMidYMid" width="18.031" height="11" viewBox="0 0 18.031 11"><defs><style>.cls-1{fill:#818181;fill-rule:evenodd}</style></defs><path d="M17.729 6.443s-3.504 4.562-8.719 4.562S.29 6.443.29 6.443c-.398-.518-.398-1.365 0-1.883 0 0 3.505-4.563 8.72-4.563 5.215 0 8.719 4.563 8.719 4.563.398.518.398 1.365 0 1.883zm-.902-1.128c-.03-.039-3.24-4.111-7.817-4.111S1.222 5.276 1.191 5.317c-.058.074-.058.294.001.371.03.039 3.241 4.11 7.818 4.11 4.607 0 7.786-4.069 7.817-4.11.059-.077.059-.297 0-.373zM9.01 8.993c-1.848 0-3.346-1.563-3.346-3.492 0-1.928 1.498-3.492 3.346-3.492 1.847 0 3.345 1.564 3.345 3.492 0 1.929-1.498 3.492-3.345 3.492zm0-5.777c-.08 0-.159.005-.236.014.25.239.409.58.409.962 0 .723-.562 1.309-1.255 1.309-.43 0-.809-.226-1.035-.571a2.338 2.338 0 0 0-.072.571c0 1.26.982 2.285 2.189 2.285s2.189-1.025 2.189-2.285c0-1.26-.982-2.285-2.189-2.285z" class="cls-1"/></svg>